<svg width="300" height="169" viewBox="0 0 300 169" xmlns="http://www.w3.org/2000/svg">
    <title>Category</title>
    <g fill="none" fill-rule="evenodd">
        <path fill="#FFF" d="M-8-73h315v316H-8z"/>
        <g fill="#DBE3E8">
            <path d="M210 45.38c0-1.16-.774-1.932-1.935-1.932h-60.968l-11.032-14.676c-.388-.58-.968-.772-1.55-.772h-42.58c-1.16 0-1.935.772-1.935 1.93v32.83h120V45.38zM90 66.62v71.45c0 1.158.774 1.93 1.935 1.93h116.13c1.16 0 1.935-.772 1.935-1.93V66.62H90z"/>
        </g>
        <path d="M174.75 106.583L146.417 78.25c-.167-.167-.334-.25-.584-.25h-20c-.5 0-.833.333-.833.833v20c0 .25.083.417.25.584l28.333 28.333c.167.167.417.25.584.25.166 0 .416-.083.583-.25l20-20c.333-.333.333-.833 0-1.167zm-37.25-12.75c-1.833 0-3.333-1.5-3.333-3.333 0-1.833 1.5-3.333 3.333-3.333 1.833 0 3.333 1.5 3.333 3.333 0 1.833-1.5 3.333-3.333 3.333z" fill="#FFF"/>
    </g>
</svg>