<svg width="316" height="316" viewBox="0 0 316 316" xmlns="http://www.w3.org/2000/svg">
    <title>Category</title>
    <g fill-rule="nonzero" fill="none">
        <path fill="#DBE3E8" d="M0 0h316v316H0z"/>
        <g fill="#FFF">
            <path d="M218.38 119.38c0-1.16-.776-1.932-1.94-1.932h-61.162l-11.067-14.676c-.388-.58-.97-.772-1.553-.772H99.942c-1.165 0-1.942.772-1.942 1.93v32.83h120.38v-17.38zM98 140.62v71.45c0 1.158.777 1.93 1.942 1.93H216.44c1.164 0 1.94-.772 1.94-1.93v-71.45H98z"/>
        </g>
        <path d="M183.02 180.583l-28.424-28.333c-.167-.167-.335-.25-.585-.25h-20.063c-.5 0-.836.333-.836.833v20c0 .25.085.417.252.584l28.423 28.333c.167.167.418.25.585.25.168 0 .418-.083.586-.25l20.063-20c.333-.333.333-.833 0-1.167zm-37.37-12.75c-1.838 0-3.343-1.5-3.343-3.333 0-1.833 1.505-3.333 3.344-3.333 1.84 0 3.345 1.5 3.345 3.333 0 1.833-1.505 3.333-3.344 3.333z" fill="#DBE3E8"/>
    </g>
</svg>