<svg width="300" height="169" viewBox="0 0 300 169" xmlns="http://www.w3.org/2000/svg">
    <title>Video</title>
    <g fill="none" fill-rule="evenodd">
        <path fill="#FFF" d="M-8-73h315v316H-8z"/>
        <path d="M198.387 34h-96.774c-.968 0-1.613.645-1.613 1.613v96.774c0 .968.645 1.613 1.613 1.613h96.774c.968 0 1.613-.645 1.613-1.613V35.613c0-.968-.645-1.613-1.613-1.613zm-62.903 3.226h12.903V50.13h-12.903V37.225zm25.16 45.484c.485.322.646.806.646 1.29s-.322.968-.645 1.29L141.29 98.194c-.322.16-.645.322-.967.322-.323 0-.484 0-.807-.16-.484-.324-.806-.808-.806-1.453V71.097c0-.645.322-1.13.806-1.452.484-.322 1.13-.322 1.613 0l19.515 13.065zm-44.515 48.064h-12.904V117.87h12.903v12.904zm0-80.645h-12.904V37.225h12.903V50.13zm16.128 80.644h-12.903V117.87h12.903v12.904zm0-80.645h-12.903V37.225h12.903V50.13zm16.13 80.644h-12.904V117.87h12.903v12.904zm16.128 0h-12.903V117.87h12.903v12.904zm0-80.645h-12.903V37.225h12.903V50.13zm16.13 80.644H167.74V117.87h12.903v12.904zm0-80.645H167.74V37.225h12.903V50.13zm16.128 80.644H183.87V117.87h12.904v12.904zm0-80.645H183.87V37.225h12.904V50.13z" fill="#DBE3E8"/>
    </g>
</svg>