<?xml version="1.0" encoding="UTF-8"?><!DOCTYPE svg PUBLIC "-//W3C//DTD SVG 1.1//EN" "http://www.w3.org/Graphics/SVG/1.1/DTD/svg11.dtd"><svg xmlns="http://www.w3.org/2000/svg"><symbol id="theme-icon-basket" viewBox="0 0 24 24"><path d="M12 17.016q.797 0 1.406-.609t.609-1.406-.609-1.406T12 12.986t-1.406.609-.609 1.406.609 1.406 1.406.609zM9 9h6l-3-4.406zm8.203 0h4.781q.422 0 .727.281t.305.703q-.469 1.875-1.406 5.273t-1.172 4.289q-.422 1.453-1.922 1.453H5.485q-1.5 0-1.922-1.453l-2.531-9.281q-.047-.094-.047-.281 0-.422.305-.703T2.017 9h4.781l4.359-6.563q.281-.422.844-.422t.844.422z"/></symbol><symbol id="theme-icon-chevron-left" viewBox="0 0 20 20"><path d="M12.452 4.516c.446.436.481 1.043 0 1.576L8.705 10l3.747 3.908c.481.533.446 1.141 0 1.574-.445.436-1.197.408-1.615 0-.418-.406-4.502-4.695-4.502-4.695a1.095 1.095 0 0 1 0-1.576s4.084-4.287 4.502-4.695 1.17-.436 1.615 0z"/></symbol><symbol id="theme-icon-chevron-right" viewBox="0 0 20 20"><path d="M9.163 4.516c.418.408 4.502 4.695 4.502 4.695a1.095 1.095 0 0 1 0 1.576s-4.084 4.289-4.502 4.695c-.418.408-1.17.436-1.615 0-.446-.434-.481-1.041 0-1.574L11.295 10 7.548 6.092c-.481-.533-.446-1.141 0-1.576s1.197-.409 1.615 0z"/></symbol><symbol id="theme-icon-close" viewBox="0 0 24 24"><path d="M19 4q.43 0 .715.285T20 5q0 .422-.289.711L13.414 12l6.297 6.289Q20 18.578 20 19q0 .43-.285.715T19 20q-.422 0-.711-.289L12 13.414l-6.289 6.297Q5.422 20 5 20q-.43 0-.715-.285T4 19q0-.422.289-.711L10.586 12 4.289 5.711Q4 5.422 4 5q0-.43.285-.715T5 4q.422 0 .711.289L12 10.586l6.289-6.297Q18.578 4 19 4z"/></symbol><symbol id="theme-icon-dribbble" viewBox="0 0 16 16"><path fill-rule="evenodd" clip-rule="evenodd" d="M8 0C3.6 0 0 3.6 0 8s3.6 8 8 8 8-3.6 8-8-3.6-8-8-8zm2.2 7.4s-.2-.6-.3-.8c1.7-.8 2.8-1.7 3.2-2.2.7.9 1.1 2 1.2 3.2-.8-.2-2.6-.5-4.1-.2zM9.1 5.1C8.3 3.7 7.4 2.5 7 1.8c1.9-.5 3.6.1 4.9 1.3-.4.5-1.2 1.3-2.8 2zm-4-2.6c.4.5 1.2 1.7 2 3.2-2.2.5-4.2.6-5.1.6.4-1.6 1.6-3 3.1-3.8zM8 7.3c.1.2.2.4.3.5-2.8.9-4.6 3.2-5.2 4.1-.8-1.1-1.3-2.4-1.3-3.7.9-.1 3.5-.2 6.2-.9zm1 2.2c.7 2 1.1 3.6 1.2 4.4-2.1.7-4.5.3-5.8-.8.4-.7 1.7-2.5 4.6-3.6zm2.9 3.4c-.2-.8-.5-2.2-1.1-3.9 1.1-.2 2.7 0 3.3.2-.3 1.5-1.1 2.8-2.2 3.7z"/></symbol><symbol id="theme-icon-facebook" viewBox="0 0 16 16"><title>Facebook</title><path d="M12 6v3H9v7H6V9H3V6h3V5c0-1.444 0-3 1-4 .984-.984 1.766-1 2.943-1H12v3h-2c-.598 0-1 .402-1 1v2h3z"/></symbol><symbol id="theme-icon-flickr" viewBox="0 0 16 16"><path d="M15.3 0H.7C.3 0 0 .3 0 .7v14.7c0 .3.3.6.7.6h14.7c.4 0 .7-.3.7-.7V.7c-.1-.4-.4-.7-.8-.7zM4.5 10C3.1 10 2 8.9 2 7.5S3.1 5 4.5 5 7 6.1 7 7.5 5.9 10 4.5 10zm7 0C10.1 10 9 8.9 9 7.5S10.1 5 11.5 5 14 6.1 14 7.5 12.9 10 11.5 10z"/></symbol><symbol id="theme-icon-google-plus" viewBox="0 0 16 16"><title>Google+</title><path d="M3.436 3.273A5.1 5.1 0 0 0 .545 5.754C.339 6.152.19 6.574.1 7.012a4.927 4.927 0 0 0 .442 3.234c.332.645.809 1.22 1.385 1.669.546.424 1.18.742 1.854.916.85.223 1.756.218 2.611.027a4.663 4.663 0 0 0 2.09-1.064 4.528 4.528 0 0 0 1.292-2.075 5.757 5.757 0 0 0 .13-2.656h-4.8v1.952h2.78a2.351 2.351 0 0 1-1.02 1.545 2.957 2.957 0 0 1-1.124.435c-.4.068-.818.076-1.218-.002a3.052 3.052 0 0 1-1.136-.481 3.098 3.098 0 0 1-1.168-1.535 2.976 2.976 0 0 1 0-1.946c.153-.44.406-.847.74-1.18a3.043 3.043 0 0 1 3.023-.771c.411.12.79.344 1.1.634l.938-.92c.164-.163.337-.322.496-.491a4.992 4.992 0 0 0-1.643-.997 5.249 5.249 0 0 0-3.436-.033zM16 8.078h-1.91V10h-1.17V8.078H11V6.922h1.91V5h1.17v1.922H16v1.156z"/></symbol><symbol id="theme-icon-instagram" viewBox="0 0 16 16"><path d="M14.1 0H1.9C.9 0 0 .8 0 1.9v12.2c0 1 .9 1.9 1.9 1.9h12.2c1.1 0 1.9-.8 1.9-1.9V1.9C16 .8 15.1 0 14.1 0zM8 4.9c1.7 0 3.1 1.4 3.1 3.1 0 1.7-1.4 3.1-3.1 3.1-1.7 0-3.1-1.4-3.1-3.1 0-1.7 1.4-3.1 3.1-3.1zm6 8.4c0 .4-.3.7-.7.7H2.7c-.4 0-.7-.3-.7-.7V6.7h1.3c-.2.7-.2 1.6 0 2.4.4 1.9 1.9 3.3 3.8 3.7 3.1.6 5.8-1.8 5.8-4.8 0-.4-.1-.9-.2-1.4H14v6.7zM14 4h-2V2h2v2z"/></symbol><symbol id="theme-icon-menu" viewBox="0 0 24 24"><path d="M3 5h18q.414 0 .707.293T22 6t-.293.707T21 7H3q-.414 0-.707-.293T2 6t.293-.707T3 5zm0 12h18q.414 0 .707.293T22 18t-.293.707T21 19H3q-.414 0-.707-.293T2 18t.293-.707T3 17zm0-6h18q.414 0 .707.293T22 12t-.293.707T21 13H3q-.414 0-.707-.293T2 12t.293-.707T3 11z"/></symbol><symbol id="theme-icon-pinterest" viewBox="0 0 16 16"><path d="M8 0C3.6 0 0 3.6 0 8c0 3.4 2.1 6.3 5.1 7.4-.1-.6-.1-1.6 0-2.3.1-.6.9-4 .9-4s-.2-.4-.2-1.1c0-1.1.7-2 1.5-2 .7 0 1 .5 1 1.1 0 .7-.4 1.7-.7 2.7-.2.8.4 1.4 1.2 1.4 1.4 0 2.5-1.5 2.5-3.7 0-1.9-1.4-3.3-3.3-3.3-2.3 0-3.6 1.7-3.6 3.5 0 .7.3 1.4.6 1.8v.4c-.1.3-.2.8-.2.9 0 .1-.1.2-.3.1-1-.5-1.6-1.9-1.6-3.1C2.9 5.3 4.7 3 8.2 3c2.8 0 4.9 2 4.9 4.6 0 2.8-1.7 5-4.2 5-.8 0-1.6-.4-1.8-.9 0 0-.4 1.5-.5 1.9-.2.7-.7 1.6-1 2.1.8.2 1.6.3 2.4.3 4.4 0 8-3.6 8-8s-3.6-8-8-8z"/></symbol><symbol id="theme-icon-round-dribbble" viewBox="0 0 24 24"><path d="M11.7 10.3c-.8-1.5-1.8-2.8-1.9-3C8.4 8 7.3 9.4 7 11c.2 0 2.3 0 4.7-.7zM12.4 12.1c.1 0 .1 0 .2-.1-.1-.3-.3-.6-.4-.9-2.6.8-5 .7-5.3.7v.2c0 1.3.5 2.5 1.3 3.4.1-.2 1.5-2.5 4.2-3.3zM15.4 8.2c-.9-.8-2.1-1.3-3.4-1.3-.4 0-.8 0-1.2.1.1.2 1.1 1.5 1.9 3 1.8-.7 2.6-1.7 2.7-1.8zM12.9 12.9c-2.9 1-3.9 3-4 3.2.9.7 2 1.1 3.1 1.1.7 0 1.4-.1 2-.4-.1-.5-.4-2.1-1.1-3.9 0-.1 0-.1 0 0z"/><path d="M12 0C5.4 0 0 5.4 0 12s5.4 12 12 12 12-5.4 12-12S18.6 0 12 0zm0 18c-3.3 0-6-2.7-6-6s2.7-6 6-6 6 2.7 6 6-2.7 6-6 6z"/><path d="M13.1 10.8c.1.2.2.5.3.7 0 .1.1.2.1.3 1.7-.2 3.4.1 3.6.2 0-1.2-.4-2.3-1.2-3.2 0 .1-.9 1.2-2.8 2zM13.9 12.6c.7 1.8.9 3.3 1 3.7 1.1-.8 2-2 2.2-3.4-.2-.1-1.6-.6-3.2-.3z"/></symbol><symbol id="theme-icon-round-facebook" viewBox="0 0 24 24"><path d="M12 0C5.4 0 0 5.4 0 12s5.4 12 12 12 12-5.4 12-12S18.6 0 12 0zm3.1 8H14c-.9 0-1.1.4-1.1 1v1.4H15l-.3 2.1h-1.8V18h-2.2v-5.5H8.9v-2.1h1.8V8.8C10.7 7 11.8 6 13.5 6c.8 0 1.5.1 1.6.1V8z"/></symbol><symbol id="theme-icon-round-feedly" viewBox="0 0 24 24"><path d="M12.8 9.8l-.6-.6c-.1-.1-.2-.2-.3-.2-.2.1-.3.3-.4.4l-3 3c-.1.1-.2.2-.1.3.2.2.3.4.5.5.2 0 .5.1.7-.1l3.1-3.1c.1 0 .2-.1.1-.2zM12.2 12c-.1-.1-.2-.2-.3-.1l-.3.3-1.7 1.7c-.1.1-.2.2-.1.3.2.2.3.4.6.5.2 0 .5.1.7-.1l1.7-1.7c.1-.1.2-.2.1-.3-.2-.2-.5-.4-.7-.6zM12.2 14.7c-.1-.1-.2-.1-.3 0-.2.2-.5.4-.7.7-.1.1 0 .3.1.4l.4.4h.5c.2-.2.4-.3.5-.5.1-.1 0-.2 0-.3-.1-.3-.3-.5-.5-.7z"/><path d="M12 0C5.4 0 0 5.4 0 12s5.4 12 12 12 12-5.4 12-12S18.6 0 12 0zm5.8 13.4c-.1.2-.3.3-.5.5l-3 3c-.3.3-.7.4-1.1.4h-2.7c-.3 0-.7-.1-.9-.4l-3.3-3.3c-.3-.3-.5-.8-.4-1.3.1-.2.2-.5.4-.6C8 10.2 9.5 8.6 11 7.1c.2-.2.4-.3.6-.4.3-.1.6 0 .8.1.3.1.5.3.7.5l4.1 4.1c.2.2.5.4.6.8.3.4.2.9 0 1.2z"/></symbol><symbol id="theme-icon-round-flickr" viewBox="0 0 24 24"><path d="M12 0C5.4 0 0 5.4 0 12s5.4 12 12 12 12-5.4 12-12S18.6 0 12 0zM8.7 14.7C7.2 14.7 6 13.5 6 12c0-1.5 1.2-2.7 2.7-2.7s2.7 1.2 2.7 2.7c-.1 1.5-1.3 2.7-2.7 2.7zm6.6 0c-1.5 0-2.7-1.2-2.7-2.7 0-1.5 1.2-2.7 2.7-2.7S18 10.5 18 12c0 1.5-1.2 2.7-2.7 2.7z"/></symbol><symbol id="theme-icon-round-google-plus" viewBox="0 0 24 24"><path d="M12 0C5.4 0 0 5.4 0 12s5.4 12 12 12 12-5.4 12-12S18.6 0 12 0zM9.7 17.5C6.6 17.5 4 15 4 11.8s2.5-5.7 5.7-5.7c1.5 0 2.8.6 3.8 1.5L12 9.1c-.4-.4-1.2-.9-2.3-.9-1.9 0-3.5 1.6-3.5 3.6s1.6 3.6 3.5 3.6c2.2 0 3-1.5 3.2-2.4H10v-2h5c.6 3.2-1.4 6.5-5.3 6.5zM20 12h-1v1h-1v-1h-1v-1h1v-1h1v1h1v1z"/></symbol><symbol id="theme-icon-round-instagram" viewBox="0 0 24 24"><path d="M16.229 7.771c-.488-.488-1.121-.624-1.804-.655-.633-.029-.823-.035-2.425-.035s-1.792.006-2.424.035c-.683.031-1.317.168-1.805.655s-.624 1.122-.655 1.805c-.029.632-.035.822-.035 2.424 0 1.602.006 1.792.035 2.424.031.683.168 1.316.655 1.804s1.121.624 1.804.655c.633.029.822.035 2.424.035s1.792-.006 2.424-.035c.683-.031 1.316-.168 1.804-.655s.624-1.121.655-1.804c.029-.633.035-.822.035-2.424 0-1.602-.006-1.792-.035-2.425-.029-.682-.166-1.316-.653-1.804zM12 15.081a3.08 3.08 0 1 1-.001-6.16A3.08 3.08 0 0 1 12 15.08zm3.203-5.564a.72.72 0 1 1 0-1.44.72.72 0 0 1 0 1.44z"/><circle cx="12" cy="12" r="2"/><path d="M12 0C5.373 0 0 5.373 0 12s5.373 12 12 12 12-5.373 12-12S18.627 0 12 0zm5.964 14.474c-.045.975-.284 1.832-.971 2.519-.688.688-1.544.926-2.519.971-.64.029-.844.036-2.474.036s-1.834-.007-2.474-.036c-.975-.044-1.832-.284-2.519-.971-.688-.688-.926-1.544-.971-2.519C6.007 13.834 6 13.63 6 12s.007-1.834.036-2.474c.045-.975.284-1.832.971-2.519.688-.688 1.544-.926 2.519-.971C10.166 6.007 10.37 6 12 6s1.834.007 2.474.036c.975.044 1.832.284 2.519.971.688.688.926 1.544.971 2.519.029.64.036.844.036 2.474s-.007 1.834-.036 2.474z"/></symbol><symbol id="theme-icon-round-pinterest" viewBox="0 0 24 24"><path d="M12 0C5.4 0 0 5.4 0 12s5.4 12 12 12 12-5.4 12-12S18.6 0 12 0zm.9 14.7c-.7 0-1.4-.4-1.7-.9 0 0-.4 1.6-.5 1.9-.3 1.1-1.2 2.2-1.2 2.3 0 .1-.2 0-.2 0 0-.1-.2-1.5 0-2.6.1-.6.9-3.8.9-3.8s-.2-.5-.2-1.1c0-1 .6-1.8 1.3-1.8.6 0 .9.5.9 1 0 .6-.4 1.6-.6 2.4-.2.7.4 1.3 1.1 1.3 1.3 0 2.2-1.7 2.2-3.7 0-1.5-1-2.6-2.9-2.6-2.1 0-3.4 1.6-3.4 3.3 0 .6.2 1 .5 1.4.2.2.2.2.2.4 0 .1-.1.4-.1.6 0 .2-.2.2-.3.2-1-.4-1.4-1.4-1.4-2.6C7.4 8.3 9 6 12.3 6c2.6 0 4.4 1.9 4.4 3.9-.1 2.8-1.6 4.8-3.8 4.8z"/></symbol><symbol id="theme-icon-round-rss" viewBox="0 0 24 24"><path d="M12 0C5.4 0 0 5.4 0 12s5.4 12 12 12 12-5.4 12-12S18.6 0 12 0zM7.7 18c-1 0-1.7-.8-1.7-1.7s.8-1.7 1.7-1.7 1.7.8 1.7 1.7S8.7 18 7.7 18zm4.4 0c0-3.3-2.7-6.1-6.1-6.1v-1.8c4.4 0 7.9 3.6 7.9 7.9h-1.8zm4.1 0c0-5.6-4.6-10.2-10.2-10.2V6c6.6 0 12 5.4 12 12h-1.8z"/></symbol><symbol id="theme-icon-round-soundcloud" viewBox="0 0 24 24"><path d="M12 0C5.4 0 0 5.4 0 12s5.4 12 12 12 12-5.4 12-12S18.6 0 12 0zM6.3 14.4l-.1.1c-.1 0-.1 0-.1-.1l-.2-1.1.2-1.1.1-.1c.1 0 .1 0 .1.1l.3 1.1-.3 1.1zm2.1.2c0 .1-.1.1-.2.1s-.2 0-.2-.1l-.2-1.3.2-2.1c0-.1.1-.1.2-.1s.2 0 .2.1l.2 2.1-.2 1.3zm2.1 0c0 .1-.2.1-.4.1s-.4-.1-.4-.1l-.2-1.3.2-2.8c0-.1.2-.1.4-.1s.4.1.4.1l.2 2.8-.2 1.3zm6 .1h-4.2c-.1 0-.2-.1-.2-.2V9.7c0-.1 0-.1.1-.2.3-.1.6-.2 1-.2 1.4 0 2.6 1.1 2.7 2.5.2-.1.4-.1.6-.1.8 0 1.5.7 1.5 1.5s-.7 1.5-1.5 1.5z"/></symbol><symbol id="theme-icon-round-tumblr" viewBox="0 0 24 24"><path d="M12 0C5.4 0 0 5.4 0 12s5.4 12 12 12 12-5.4 12-12S18.6 0 12 0zm1.4 18c-2.6 0-3.6-1.9-3.6-3.2v-3.9H8.6V9.3c1.8-.7 2.3-2.3 2.4-3.2-.1-.1 0-.1 0-.1h1.8v3.1h2.4v1.8h-2.4v3.7c0 .5.2 1.2 1.2 1.2.3 0 .7-.1 1-.2l.6 1.7c-.4.3-1.3.7-2.2.7z"/></symbol><symbol id="theme-icon-round-twitter" viewBox="0 0 24 24"><path d="M12 0C5.4 0 0 5.4 0 12s5.4 12 12 12 12-5.4 12-12S18.6 0 12 0zm4.8 9.6v.3c0 3.3-2.5 7-7 7-1.4 0-2.7-.4-3.8-1.1h.6c1.2 0 2.2-.4 3.1-1.1-1.1 0-2-.7-2.3-1.7h.5c.2 0 .4 0 .6-.1-1.1-.2-2-1.2-2-2.4.3.2.7.3 1.1.3-.7-.4-1.1-1.2-1.1-2 0-.5.1-.9.3-1.2 1.2 1.5 3 2.5 5.1 2.6 0-.2-.1-.4-.1-.6 0-1.4 1.1-2.5 2.5-2.5.7 0 1.3.3 1.8.8.6-.1 1.1-.3 1.6-.6-.2.6-.6 1.1-1.1 1.4.5-.1 1-.2 1.4-.4-.3.5-.7.9-1.2 1.3z"/></symbol><symbol id="theme-icon-round-vimeo" viewBox="0 0 24 24"><path d="M12 0C5.4 0 0 5.4 0 12s5.4 12 12 12 12-5.4 12-12S18.6 0 12 0zm3.5 14c-1.6 2.1-3 3.2-4.1 3.2-.7 0-1.3-.6-1.8-1.9-.3-1.2-.6-2.4-1-3.6-.4-1.3-.7-1.9-1.2-1.9-.1 0-.4.2-.9.6L6 9.6c.6-.5 1.2-1 1.8-1.6.7-.6 1.3-1 1.7-1 .9-.1 1.5.5 1.7 1.9.2 1.5.4 2.4.5 2.7.3 1.2.6 1.8.9 1.8.3 0 .6-.4 1.1-1.2.5-.8.8-1.4.8-1.8.1-.7-.2-1-.8-1-.3 0-.6.1-.9.2.6-1.9 1.7-2.9 3.4-2.8 1.2 0 1.8.8 1.7 2.4 0 1.2-.8 2.8-2.4 4.8z"/></symbol><symbol id="theme-icon-round-youtube" viewBox="0 0 24 24"><path d="M12 0C5.4 0 0 5.4 0 12s5.4 12 12 12 12-5.4 12-12S18.6 0 12 0zm6 12.5c0 1-.1 1.9-.1 1.9s-.1.8-.5 1.2c-.5.5-1 .5-1.2.5-1.7.1-4.2.1-4.2.1s-3.1 0-4.1-.1c-.3-.1-.9 0-1.3-.5-.4-.4-.5-1.2-.5-1.2s-.1-1-.1-1.9v-.9c0-1 .1-1.9.1-1.9s.1-.8.5-1.2c.5-.5 1-.5 1.2-.5 1.7-.2 4.2-.2 4.2-.2s2.5 0 4.2.1c.2 0 .7 0 1.2.5.4.4.5 1.2.5 1.2s.1 1 .1 1.9v1z"/><path d="M10.8 13.6l3.2-1.7-3.2-1.7z"/></symbol><symbol id="theme-icon-search" viewBox="0 0 18 18"><title>Search</title><path d="M7.012 3c2.193 0 3.977 1.794 3.977 4 0 .831-.255 1.63-.737 2.312l-.392.553-.55.393A3.931 3.931 0 0 1 7.012 11c-2.193 0-3.977-1.794-3.977-4s1.784-4 3.977-4zm0-2C3.717 1 1.046 3.686 1.046 7s2.671 6 5.966 6a5.902 5.902 0 0 0 3.451-1.112l4.791 4.819a.99.99 0 0 0 1.409 0 1.005 1.005 0 0 0 0-1.416l-4.791-4.819a5.986 5.986 0 0 0 1.105-3.471c0-3.314-2.671-6-5.965-6z"/></symbol><symbol id="theme-icon-shopping-cart" viewBox="0 0 24 24"><path d="M20.756 5.345A1.003 1.003 0 0 0 20 5H6.181l-.195-1.164A1 1 0 0 0 5 3H2.75a1 1 0 1 0 0 2h1.403l1.86 11.164c.008.045.031.082.045.124.016.053.029.103.054.151a.982.982 0 0 0 .12.179c.031.039.059.078.095.112a.96.96 0 0 0 .193.13c.038.021.071.049.112.065a.97.97 0 0 0 .367.075H18a1 1 0 1 0 0-2H7.847l-.166-1H19a1 1 0 0 0 .99-.858l1-7a1.002 1.002 0 0 0-.234-.797zM18.847 7l-.285 2H15V7h3.847zM14 7v2h-3V7h3zm0 3v2h-3v-2h3zm-4-3v2H7a.481.481 0 0 0-.148.03L6.514 7H10zm-2.986 3H10v2H7.347l-.333-2zM15 12v-2h3.418l-.285 2H15zM10 19.5a1.5 1.5 0 1 1-3.001-.001A1.5 1.5 0 0 1 10 19.5zM19 19.5a1.5 1.5 0 1 1-3.001-.001A1.5 1.5 0 0 1 19 19.5z"/></symbol><symbol id="theme-icon-small-lock" viewBox="0 0 16 16"><path d="M8 0C5.8 0 4 1.8 4 4v1H2c-.6 0-1 .4-1 1v9c0 .6.4 1 1 1h12c.6 0 1-.4 1-1V6c0-.6-.4-1-1-1h-2V4c0-2.2-1.8-4-4-4zm1 11.7V13H7v-1.3c-.6-.3-1-1-1-1.7 0-1.1.9-2 2-2s2 .9 2 2c0 .7-.4 1.4-1 1.7zM10 5H6V4c0-1.1.9-2 2-2s2 .9 2 2v1z"/></symbol><symbol id="theme-icon-twitter" viewBox="0 0 16 16"><title>Twitter</title><path d="M16 3c-.6.3-1.2.4-1.9.5.7-.4 1.2-1 1.4-1.8-.6.4-1.3.6-2.1.8-.6-.6-1.5-1-2.4-1-1.7 0-3.2 1.5-3.2 3.3 0 .3 0 .5.1.7-2.7-.1-5.2-1.4-6.8-3.4-.3.5-.4 1-.4 1.7 0 1.1.6 2.1 1.5 2.7-.5 0-1-.2-1.5-.4C.7 7.7 1.8 9 3.3 9.3c-.3.1-.6.1-.9.1-.2 0-.4 0-.6-.1.4 1.3 1.6 2.3 3.1 2.3-1.1.9-2.5 1.4-4.1 1.4H0c1.5.9 3.2 1.5 5 1.5 6 0 9.3-5 9.3-9.3v-.4C15 4.3 15.6 3.7 16 3z"/></symbol><symbol id="theme-logo-amex" viewBox="0 0 46 34"><path d="M42 32a2 2 0 0 0 2-2V4a2 2 0 0 0-2-2H4a2 2 0 0 0-2 2v26a2 2 0 0 0 2 2h38zm0 2H4a4 4 0 0 1-4-4V4a4 4 0 0 1 4-4h38a4 4 0 0 1 4 4v26a4 4 0 0 1-4 4z"/><path d="M9.533 17.429h2.33l-1.165-2.857-1.165 2.857zM42 12h-5.969l-1.456 1.571L33.264 12H20.598l-1.165 2.571L18.268 12h-5.096v1.143L12.59 12H8.222L4 22h5.096l.582-1.571h1.456L11.716 22h5.678v-1.143L17.831 22h2.912l.437-1.286V22h11.648l1.456-1.571L35.594 22h5.969l-3.785-5L42 12zm-17.617 8.571h-1.602V15l-2.475 5.571H18.85L16.375 15v5.571h-3.349L12.444 19H8.95l-.582 1.571H6.475l3.057-7.143h2.475l2.766 6.714v-6.714h2.766l2.184 4.857 2.038-4.857h2.766v7.143h-.144zm14.414 0h-2.184l-1.893-2.429-2.184 2.429h-6.552v-7.143h6.697l2.038 2.286 2.184-2.286h2.038L35.739 17l3.058 3.571zm-11.211-5.714v1.286h3.64v1.429h-3.64V19h4.077l1.893-2.143-1.747-2h-4.223z"/></symbol><symbol id="theme-logo-diners" viewBox="0 0 46 34"><path d="M42 32a2 2 0 0 0 2-2V4a2 2 0 0 0-2-2H4a2 2 0 0 0-2 2v26a2 2 0 0 0 2 2h38zm0 2H4a4 4 0 0 1-4-4V4a4 4 0 0 1 4-4h38a4 4 0 0 1 4 4v26a4 4 0 0 1-4 4z"/><path d="M20 13.142v7.716c1.721-.447 3-2 3-3.858s-1.279-3.411-3-3.858z"/><path d="M27 9h-8a8 8 0 0 0 0 16h8a8 8 0 0 0 0-16zm-8 14c-3.309 0-6-2.691-6-6s2.691-6 6-6 6 2.691 6 6-2.691 6-6 6z"/><path d="M18 13.142c-1.721.447-3 2-3 3.858s1.279 3.411 3 3.858v-7.716z"/></symbol><symbol id="theme-logo-discover" viewBox="0 0 46 34"><path d="M42 32a2 2 0 0 0 2-2V4a2 2 0 0 0-2-2H4a2 2 0 0 0-2 2v26a2 2 0 0 0 2 2h38zm0 2H4a4 4 0 0 1-4-4V4a4 4 0 0 1 4-4h38a4 4 0 0 1 4 4v26a4 4 0 0 1-4 4z"/><path d="M24.029 14.013c-1.69 0-3.062 1.32-3.062 2.951 0 1.734 1.312 3.028 3.062 3.028 1.708 0 3.054-1.313 3.054-2.995.001-1.672-1.336-2.984-3.054-2.984zm-17.383.108H5v5.743h1.636c.871 0 1.499-.207 2.05-.664a2.884 2.884 0 0 0 1.043-2.206c-.001-1.696-1.267-2.873-3.083-2.873zm1.31 4.313c-.356.318-.81.457-1.535.457h-.3v-3.798h.301c.725 0 1.161.13 1.535.464.385.345.617.878.617 1.429-.001.553-.232 1.105-.618 1.448zM10.245 14.121h1.116v5.743h-1.116zM14.102 16.322c-.674-.247-.871-.412-.871-.722 0-.361.352-.635.836-.635.335 0 .612.134.906.462l.583-.764a2.499 2.499 0 0 0-1.686-.638c-1.016 0-1.791.707-1.791 1.642 0 .794.36 1.197 1.411 1.579.439.153.662.257.776.328a.683.683 0 0 1 .335.592c0 .467-.37.811-.871.811-.533 0-.964-.267-1.222-.768l-.722.7c.516.756 1.135 1.094 1.988 1.094 1.163 0 1.982-.778 1.982-1.887.001-.914-.379-1.328-1.654-1.794zm2.006.672c0 1.689 1.326 2.998 3.032 2.998.481 0 .894-.095 1.402-.335v-1.32c-.449.451-.843.629-1.353.629-1.128 0-1.927-.816-1.927-1.98 0-1.1.825-1.972 1.877-1.972.531 0 .937.188 1.402.646v-1.318c-.491-.248-.894-.351-1.379-.351-1.695 0-3.054 1.334-3.054 3.003zM29.617 17.977l-1.531-3.856h-1.222l2.435 5.888h.601l2.482-5.888H31.17zM32.89 19.864h3.176v-.973h-2.055v-1.55h1.977v-.973h-1.977v-1.275h2.055v-.972H32.89zM40.5 15.815c0-1.076-.738-1.695-2.031-1.695h-1.664v5.743h1.123v-2.309h.146l1.547 2.309H41l-1.807-2.421c.844-.171 1.307-.748 1.307-1.627zm-2.246.947h-.325v-1.737h.343c.7 0 1.075.294 1.075.853 0 .574-.375.884-1.093.884z"/></symbol><symbol id="theme-logo-jcb" viewBox="0 0 46 34"><path d="M42 32a2 2 0 0 0 2-2V4a2 2 0 0 0-2-2H4a2 2 0 0 0-2 2v26a2 2 0 0 0 2 2h38zm0 2H4a4 4 0 0 1-4-4V4a4 4 0 0 1 4-4h38a4 4 0 0 1 4 4v26a4 4 0 0 1-4 4z"/><path d="M30.63 17.405h1.882c.537 0 .845.288.933.674a.907.907 0 0 1 0 .411c-.089.392-.414.674-.901.674H30.63v-1.759zm2.59-1.99a.871.871 0 0 1 0 .374c-.1.455-.463.624-.933.624H30.63V14.79h1.689c.53.001.82.257.901.625zM37 7v17a3 3 0 0 1-3 3h-5v-6.795h5.185c1.127-.009 2.105-.582 2.105-1.666 0-.072-.005-.141-.014-.209-.113-.814-.882-1.322-1.896-1.4v-.039c1.012-.157 1.518-.802 1.518-1.53 0-.533-.249-.966-.716-1.243-.56-.331-1.194-.323-1.769-.323H29V10a3 3 0 0 1 3-3h5zM9 18.566V10a3 3 0 0 1 3-3h5v17c0 1.657-1.34 3-2.996 3H9v-7.025c1.217.335 4.156.708 5.882.052 1.087-.411 1.654-1.187 1.654-2.364v-3.867h-2.867v3.867c0 .781-.43 1.383-1.196 1.58-.988.255-2.437-.176-3.473-.677zm10-3.868V10a3 3 0 0 1 3-3h5v17c0 1.657-1.342 3-2.998 3H19v-7.696c.797.684 1.921.943 2.959 1.041 1.339.118 2.788.014 4.336-.369v-1.41c-.905.45-2.031.855-3.308.727-1.402-.163-2.101-1.04-2.101-2.292 0-1.317.775-2.16 2.133-2.297 1.089-.108 2.252.217 3.276.731v-1.411a13.438 13.438 0 0 0-3.854-.4c-1.196.058-2.535.296-3.441 1.074z"/></symbol><symbol id="theme-logo-mastercard" viewBox="0 0 46 34"><path d="M42 32a2 2 0 0 0 2-2V4a2 2 0 0 0-2-2H4a2 2 0 0 0-2 2v26a2 2 0 0 0 2 2h38zm0 2H4a4 4 0 0 1-4-4V4a4 4 0 0 1 4-4h38a4 4 0 0 1 4 4v26a4 4 0 0 1-4 4z"/><path d="M28 9a7.96 7.96 0 0 0-4.999 1.76A7.952 7.952 0 0 0 18 9a8 8 0 0 0 0 16 7.935 7.935 0 0 0 4.994-1.765A7.962 7.962 0 0 0 28 25a8 8 0 0 0 0-16zm0 14a5.966 5.966 0 0 1-3.604-1.214 8.02 8.02 0 0 0 .525-.786h-1.38a6.038 6.038 0 0 1-.729-1h2.601c.131-.323.237-.658.325-1H22.35a5.969 5.969 0 0 1-.26-1h3.841c.041-.328.069-.661.069-1h-4c0-.341.035-.674.09-1h3.841a8.03 8.03 0 0 0-.193-1H22.35c.124-.349.278-.684.462-1h2.601a7.858 7.858 0 0 0-.492-1h-1.38A5.98 5.98 0 0 1 28 11c3.308 0 6 2.692 6 6s-2.692 6-6 6z"/></symbol><symbol id="theme-logo-paypal" viewBox="0 0 46 34"><path d="M42 32a2 2 0 0 0 2-2V4a2 2 0 0 0-2-2H4a2 2 0 0 0-2 2v26a2 2 0 0 0 2 2h38zm0 2H4a4 4 0 0 1-4-4V4a4 4 0 0 1 4-4h38a4 4 0 0 1 4 4v26a4 4 0 0 1-4 4z"/><path d="M29.292 12.203h-2.8a.389.389 0 0 0-.384.328l-1.132 7.18a.234.234 0 0 0 .231.27h1.437a.273.273 0 0 0 .269-.23l.321-2.036a.389.389 0 0 1 .384-.328h.886c1.844 0 2.909-.893 3.187-2.662.125-.774.005-1.382-.357-1.807-.399-.467-1.105-.715-2.042-.715zm.323 2.623c-.153 1.005-.921 1.005-1.663 1.005h-.422l.296-1.877a.234.234 0 0 1 .231-.197c.615 0 1.155-.025 1.423.288.147.173.191.428.135.781zM9.32 12.203h-2.8a.389.389 0 0 0-.384.328l-1.132 7.18a.234.234 0 0 0 .231.27h1.337a.389.389 0 0 0 .384-.328l.306-1.937a.389.389 0 0 1 .384-.328h.886c1.844 0 2.909-.893 3.187-2.662.125-.774.005-1.382-.357-1.807-.4-.468-1.105-.716-2.042-.716zm.323 2.623c-.153 1.005-.921 1.005-1.663 1.005h-.423l.296-1.877a.234.234 0 0 1 .231-.197h.194c.505 0 .983 0 1.229.288.147.173.192.428.136.781zm8.047-.032h-1.341a.234.234 0 0 0-.231.197l-.059.375c-.13-.189-.389-.698-1.678-.698-1.481 0-2.747 1.123-2.993 2.697-.128.785.054 1.536.499 2.06.409.481.993.682 1.689.682 1.194 0 1.856-.767 1.856-.767l-.06.373a.234.234 0 0 0 .231.27h1.208a.389.389 0 0 0 .384-.328l.725-4.59a.234.234 0 0 0-.23-.271zm-1.869 2.61a1.494 1.494 0 0 1-1.513 1.28c-.389 0-.7-.125-.9-.362-.198-.235-.273-.569-.21-.942a1.501 1.501 0 0 1 1.503-1.29c.381 0 .69.126.894.365.204.241.285.578.226.949zm21.841-2.61h-1.341a.234.234 0 0 0-.231.197l-.059.375c-.13-.189-.389-.698-1.678-.698-1.481 0-2.747 1.123-2.993 2.697-.128.785.054 1.536.499 2.06.409.481.993.682 1.689.682 1.194 0 1.856-.767 1.856-.767l-.06.373a.234.234 0 0 0 .231.27h1.208a.389.389 0 0 0 .384-.328l.725-4.59a.233.233 0 0 0-.23-.271zm-1.869 2.61c-.13.766-.738 1.28-1.513 1.28-.389 0-.7-.125-.9-.362-.198-.235-.273-.569-.21-.942a1.501 1.501 0 0 1 1.503-1.29c.381 0 .69.126.894.365.204.241.285.578.226.949zm-10.962-2.61h-1.348a.39.39 0 0 0-.322.171l-1.859 2.738-.788-2.631a.39.39 0 0 0-.373-.278h-1.325a.233.233 0 0 0-.221.309l1.484 4.356-1.396 1.97a.233.233 0 0 0 .19.368h1.346a.391.391 0 0 0 .32-.167l4.482-6.469a.233.233 0 0 0-.19-.367zm14.411-2.393l-1.149 7.312a.234.234 0 0 0 .231.27h1.156a.389.389 0 0 0 .384-.328l1.133-7.18a.234.234 0 0 0-.231-.27h-1.294a.23.23 0 0 0-.23.196z"/></symbol><symbol id="theme-logo-visa" viewBox="0 0 46 34"><path d="M42 32a2 2 0 0 0 2-2V4a2 2 0 0 0-2-2H4a2 2 0 0 0-2 2v26a2 2 0 0 0 2 2h38zm0 2H4a4 4 0 0 1-4-4V4a4 4 0 0 1 4-4h38a4 4 0 0 1 4 4v26a4 4 0 0 1-4 4z"/><path d="M18.238 21.8h2.609l1.633-9.576h-2.61zM27.743 16.069c-.912-.443-1.471-.739-1.465-1.187 0-.398.473-.824 1.495-.824a4.72 4.72 0 0 1 2.188.477l.354-2.076a6.739 6.739 0 0 0-2.339-.402c-2.579 0-4.396 1.299-4.411 3.16-.015 1.376 1.297 2.144 2.287 2.602 1.016.469 1.358.769 1.353 1.188-.006.642-.811.935-1.562.935-1.158 0-1.742-.179-2.793-.655l-.366 2.144c.61.267 1.737.499 2.908.511 2.744 0 4.525-1.284 4.545-3.272.007-1.089-.688-1.918-2.194-2.601zm9.264-3.836H34.99c-.625 0-1.092.171-1.367.794l-3.876 8.776h2.741s.448-1.18.55-1.439l3.343.004c.078.335.318 1.435.318 1.435h2.422l-2.114-9.57zm-3.218 6.173a427.55 427.55 0 0 0 1.386-3.591c.353 1.651.009.049.781 3.591h-2.167zm-17.74-6.175l-2.556 6.53-.272-1.327-.915-4.401c-.158-.606-.616-.787-1.183-.808h-4.21l-.033.199c1.024.248 1.939.606 2.742 1.05l2.321 8.317 2.762-.003 4.109-9.558h-2.765v.001z"/></symbol></svg>